<svg id="Layer_1" data-name="Layer 1" xmlns="http://www.w3.org/2000/svg" xmlns:xlink="http://www.w3.org/1999/xlink" viewBox="0 0 1931.68 902.9"><defs><style>.cls-1{fill:#1c1c1c;}.cls-2{fill:url(#linear-gradient);}.cls-3{fill:url(#linear-gradient-2);}</style><linearGradient id="linear-gradient" x1="147.78" y1="545.51" x2="247.25" y2="602.94" gradientUnits="userSpaceOnUse"><stop offset="0.26" stop-color="#faaf43"/><stop offset="0.29" stop-color="#efa845"/><stop offset="0.36" stop-color="#d59949"/><stop offset="0.44" stop-color="#c18c4c"/><stop offset="0.53" stop-color="#b3844e"/><stop offset="0.64" stop-color="#ab7f50"/><stop offset="0.82" stop-color="#a87d50"/></linearGradient><linearGradient id="linear-gradient-2" x1="305.64" y1="605.99" x2="684.73" y2="387.12" gradientUnits="userSpaceOnUse"><stop offset="0.13" stop-color="#faaf43"/><stop offset="0.26" stop-color="#ae804e"/><stop offset="0.39" stop-color="#e5a246"/><stop offset="0.43" stop-color="#faaf43"/><stop offset="0.47" stop-color="#f5ac44"/><stop offset="0.51" stop-color="#e8a446"/><stop offset="0.55" stop-color="#d29649"/><stop offset="0.59" stop-color="#b3844e"/><stop offset="0.6" stop-color="#a87d50"/><stop offset="0.63" stop-color="#af814f"/><stop offset="0.67" stop-color="#c28d4c"/><stop offset="0.71" stop-color="#e1a047"/><stop offset="0.74" stop-color="#faaf43"/><stop offset="0.77" stop-color="#efa845"/><stop offset="0.82" stop-color="#d39749"/><stop offset="0.88" stop-color="#a87d50"/><stop offset="0.9" stop-color="#ab7f4f"/><stop offset="0.93" stop-color="#b5854e"/><stop offset="0.95" stop-color="#c68f4b"/><stop offset="0.96" stop-color="#de9e48"/><stop offset="0.98" stop-color="#faaf43"/></linearGradient></defs><path class="cls-1" d="M774.24,705.4,888.76,505.67l1-3.94v-4.21l-1.06-3.95L774.27,294.5l6.87-11.88H881.76l6.93,4.07,74.58,134a5.27,5.27,0,0,0,4.6,2.71h0a5.28,5.28,0,0,0,4.66-2.82l70.29-133.72,7-4.24h100.61l6.89,11.83L1043.2,496.18l-1,3.91v4.22l1.06,4,114,197.1-6.86,11.89H1049.76l-7-4.1L968.7,578.57a5.26,5.26,0,0,0-4.61-2.72h0a5.26,5.26,0,0,0-4.66,2.81L888.65,713l-7,4.23H781.12Z" transform="translate(-34.16 -29.69)"/><path class="cls-1" d="M1190.35,293.54v413l10.78,10.77h329.69l10.78-10.77V569l-10.78-10.78h-69.74L1450.3,569V615.2L1439.52,626H1292.43l-10.78-10.78V384.84l10.78-10.77h147.09l10.78,10.77V431l10.78,10.78h69.74L1541.6,431V293.54l-10.78-10.77H1201.13Z" transform="translate(-34.16 -29.69)"/><path class="cls-1" d="M1586.86,293.54v413l10.78,10.77h329.69l10.77-10.77V569l-10.77-10.78h-69.75L1846.81,569V615.2L1836,626h-147.1l-10.77-10.78V384.84l10.77-10.77H1836l10.78,10.77V431l10.77,10.78h69.75L1938.1,431V293.54l-10.77-10.77H1597.64Z" transform="translate(-34.16 -29.69)"/><polygon class="cls-1" points="76.44 798.75 57.06 798.75 38.73 831.89 20.18 798.75 0.81 798.75 29.11 849.27 0 901.84 19.38 901.84 38.85 866.66 58.54 901.84 77.91 901.84 48.45 849.32 76.44 798.75"/><path class="cls-1" d="M150.69,828.44,113.41,931.53h19.78L138.67,915h35.72l5.47,16.52h19.78L162.36,828.44Zm-5.82,67.85,11.66-35.17,11.65,35.17Z" transform="translate(-34.16 -29.69)"/><polygon class="cls-1" points="201.09 867.52 180.37 798.75 161.46 798.75 193.91 901.84 208.26 901.84 240.71 798.75 221.81 798.75 201.09 867.52"/><rect class="cls-1" x="251.44" y="798.75" width="19.04" height="103.09"/><path class="cls-1" d="M381.58,886.22a25.17,25.17,0,0,0,9.49-10.81,40.73,40.73,0,0,0,0-32.4,25.28,25.28,0,0,0-9.45-10.81,26,26,0,0,0-14.15-3.83H324.76V931.53h18.37V890.05h11.15l22,41.48h22.27L375.21,889A24.39,24.39,0,0,0,381.58,886.22ZM371,869.84a8.45,8.45,0,0,1-5,1.49H343.13V847.08H366a8.6,8.6,0,0,1,5,1.49,9.57,9.57,0,0,1,3.32,4.26,16.24,16.24,0,0,1,1.18,6.38,17.18,17.18,0,0,1-1.24,6.38A9.61,9.61,0,0,1,371,869.84Z" transform="translate(-34.16 -29.69)"/><path class="cls-1" d="M463.86,832.09a39.3,39.3,0,0,0-37.35,0A31.91,31.91,0,0,0,414,845.42a43.07,43.07,0,0,0-4.42,20v29.21a43.13,43.13,0,0,0,4.42,20,32,32,0,0,0,12.51,13.33,39.38,39.38,0,0,0,37.35,0,32.07,32.07,0,0,0,12.5-13.33,43.13,43.13,0,0,0,4.43-20V865.38a43.07,43.07,0,0,0-4.43-20A32,32,0,0,0,463.86,832.09Zm-2.12,63a21.08,21.08,0,0,1-2,9.5,14.89,14.89,0,0,1-5.8,6.35,18.14,18.14,0,0,1-17.43,0,14.83,14.83,0,0,1-5.8-6.35,21,21,0,0,1-2.05-9.5v-30.2a21,21,0,0,1,2.05-9.5,14.88,14.88,0,0,1,5.8-6.35,18.14,18.14,0,0,1,17.43,0,15,15,0,0,1,5.8,6.35,21.11,21.11,0,0,1,2,9.5Z" transform="translate(-34.16 -29.69)"/><polygon class="cls-1" points="521.86 874.23 487.19 798.75 464.73 798.75 464.73 901.77 482.3 901.77 482.3 827.45 516.83 901.77 539.43 901.77 539.43 798.75 521.86 798.75 521.86 874.23"/><path class="cls-1" d="M650.86,855.56a14.28,14.28,0,0,1,5.53-6.53,16.45,16.45,0,0,1,8.79-2.23,13.63,13.63,0,0,1,7.14,1.91,16.38,16.38,0,0,1,5.43,5.54,26.88,26.88,0,0,1,3.32,8.72h19a54,54,0,0,0-6.54-19.25,33.24,33.24,0,0,0-12-12.16,32.26,32.26,0,0,0-16.43-4.19q-11.13,0-19,4.54a29.53,29.53,0,0,0-12.07,13.15q-4.17,8.63-4.16,20.81v28.29q0,12.2,4.16,20.81a29.3,29.3,0,0,0,12.07,13.12q7.9,4.5,19,4.5a32,32,0,0,0,16.39-4.18,33.27,33.27,0,0,0,11.94-12.16,55.36,55.36,0,0,0,6.6-19.25h-19a26.25,26.25,0,0,1-3.22,8.79,15.64,15.64,0,0,1-5.43,5.5,14.13,14.13,0,0,1-7.24,1.87,16.45,16.45,0,0,1-8.79-2.23,14.28,14.28,0,0,1-5.53-6.49A25,25,0,0,1,649,894.16V865.87A25.3,25.3,0,0,1,650.86,855.56Z" transform="translate(-34.16 -29.69)"/><path class="cls-1" d="M766.46,832.09a39.3,39.3,0,0,0-37.35,0,31.89,31.89,0,0,0-12.5,13.33,43.07,43.07,0,0,0-4.43,20v29.21a43.13,43.13,0,0,0,4.43,20,32,32,0,0,0,12.5,13.33,39.38,39.38,0,0,0,37.35,0A32,32,0,0,0,779,914.55a43.13,43.13,0,0,0,4.43-20V865.38a43.07,43.07,0,0,0-4.43-20A31.89,31.89,0,0,0,766.46,832.09Zm-2.11,63a21,21,0,0,1-2.05,9.5,14.83,14.83,0,0,1-5.8,6.35,18.14,18.14,0,0,1-17.43,0,14.83,14.83,0,0,1-5.8-6.35,21.09,21.09,0,0,1-2-9.5v-30.2a21.12,21.12,0,0,1,2-9.5,14.88,14.88,0,0,1,5.8-6.35,18.14,18.14,0,0,1,17.43,0,14.88,14.88,0,0,1,5.8,6.35,21,21,0,0,1,2.05,9.5Z" transform="translate(-34.16 -29.69)"/><polygon class="cls-1" points="824.46 874.23 789.8 798.75 767.34 798.75 767.34 901.77 784.9 901.77 784.9 827.45 819.43 901.77 842.03 901.77 842.03 798.75 824.46 798.75 824.46 874.23"/><path class="cls-1" d="M950.92,875.83a79.25,79.25,0,0,0-15.46-4.64c-.27-.05-.52-.11-.77-.18a5.8,5.8,0,0,0-.77-.17,3.45,3.45,0,0,0-.54-.11,3.33,3.33,0,0,1-.53-.11,89.77,89.77,0,0,1-10-2.55,14.3,14.3,0,0,1-6-3.79,10,10,0,0,1-2.41-7.06v-.07a9.28,9.28,0,0,1,4.62-8.26c3.09-2,7.44-2.94,13.08-2.94a33.93,33.93,0,0,1,11.76,2.27,48.27,48.27,0,0,1,11.77,6.38l7.78-16.45a58.49,58.49,0,0,0-9.92-5.81,55.79,55.79,0,0,0-10.7-3.69,47,47,0,0,0-10.69-1.28q-11.4,0-19.45,3.73a27.09,27.09,0,0,0-12.27,10.81q-4.22,7.1-4.22,17.09v.07q0,11.26,4.49,17.4a24,24,0,0,0,10.93,8.58,86.73,86.73,0,0,0,16.23,4.08l1.47.21a1,1,0,0,0,.37.07,1.4,1.4,0,0,1,.37.07,66.86,66.86,0,0,1,9.12,2.06,13,13,0,0,1,5.76,3.54,9.28,9.28,0,0,1,2.22,6.53v.07a10.27,10.27,0,0,1-5,9.11q-5,3.23-13.94,3.22a44.44,44.44,0,0,1-15.16-2.65,40.63,40.63,0,0,1-13-7.56l-8.52,16a47.9,47.9,0,0,0,10.49,6.91,56,56,0,0,0,12.54,4.36,62.67,62.67,0,0,0,13.65,1.49q11.73,0,20.08-3.69a27.53,27.53,0,0,0,12.71-10.7q4.35-7,4.35-16.88v-.14q0-10.48-4.15-16.55A24.41,24.41,0,0,0,950.92,875.83Z" transform="translate(-34.16 -29.69)"/><polygon class="cls-1" points="934.63 817.47 961.18 817.47 961.18 901.84 979.55 901.84 979.55 817.47 1006.11 817.47 1006.11 798.75 934.63 798.75 934.63 817.47"/><path class="cls-1" d="M1107.82,886.22a25.22,25.22,0,0,0,9.48-10.81,40.73,40.73,0,0,0,0-32.4,25.28,25.28,0,0,0-9.45-10.81,26,26,0,0,0-14.15-3.83H1051V931.53h18.37V890.05h11.15l22,41.48h22.26L1101.44,889A24.45,24.45,0,0,0,1107.82,886.22Zm-10.63-16.38a8.42,8.42,0,0,1-5,1.49h-22.87V847.08h22.87a8.63,8.63,0,0,1,5,1.49,9.64,9.64,0,0,1,3.32,4.26,16.25,16.25,0,0,1,1.17,6.38,17,17,0,0,1-1.24,6.38A9.54,9.54,0,0,1,1097.19,869.84Z" transform="translate(-34.16 -29.69)"/><path class="cls-1" d="M1189.32,894.73q0,8.87-4.53,13.75t-12.77,4.9q-8.19,0-12.67-4.9t-4.5-13.75V828.44h-18.37v65.79q0,12.13,4.16,20.74a29.23,29.23,0,0,0,12.14,13.12q8,4.5,19.24,4.5t19.28-4.5A29.36,29.36,0,0,0,1203.5,915q4.18-8.61,4.19-20.74V828.44h-18.37Z" transform="translate(-34.16 -29.69)"/><path class="cls-1" d="M1244.07,855.56a14.17,14.17,0,0,1,5.53-6.53,16.39,16.39,0,0,1,8.78-2.23,13.63,13.63,0,0,1,7.14,1.91,16.29,16.29,0,0,1,5.43,5.54,26.66,26.66,0,0,1,3.32,8.72h19a54.4,54.4,0,0,0-6.54-19.25,33.19,33.19,0,0,0-12-12.16,32.23,32.23,0,0,0-16.43-4.19q-11.13,0-19,4.54a29.53,29.53,0,0,0-12.07,13.15q-4.15,8.63-4.16,20.81v28.29q0,12.2,4.16,20.81a29.3,29.3,0,0,0,12.07,13.12q7.9,4.5,19,4.5a32.06,32.06,0,0,0,16.4-4.18,33.32,33.32,0,0,0,11.93-12.16,55.57,55.57,0,0,0,6.61-19.25h-19a26.25,26.25,0,0,1-3.22,8.79,15.64,15.64,0,0,1-5.43,5.5,14.1,14.1,0,0,1-7.24,1.87,16.39,16.39,0,0,1-8.78-2.23,14.16,14.16,0,0,1-5.53-6.49,24.85,24.85,0,0,1-1.92-10.28V865.87A25.13,25.13,0,0,1,1244.07,855.56Z" transform="translate(-34.16 -29.69)"/><polygon class="cls-1" points="1262.51 817.47 1289.06 817.47 1289.06 901.84 1307.43 901.84 1307.43 817.47 1333.99 817.47 1333.99 798.75 1262.51 798.75 1262.51 817.47"/><rect class="cls-1" x="1343.37" y="798.75" width="19.04" height="103.09"/><path class="cls-1" d="M1469,832.09a39.3,39.3,0,0,0-37.35,0,31.91,31.91,0,0,0-12.51,13.33,43.07,43.07,0,0,0-4.42,20v29.21a43.13,43.13,0,0,0,4.42,20,32,32,0,0,0,12.51,13.33,39.38,39.38,0,0,0,37.35,0,32.07,32.07,0,0,0,12.5-13.33,43.13,43.13,0,0,0,4.43-20V865.38a43.07,43.07,0,0,0-4.43-20A32,32,0,0,0,1469,832.09Zm-2.12,63a21.08,21.08,0,0,1-2,9.5,14.89,14.89,0,0,1-5.8,6.35,18.14,18.14,0,0,1-17.43,0,14.83,14.83,0,0,1-5.8-6.35,21,21,0,0,1-2-9.5v-30.2a21,21,0,0,1,2-9.5,14.88,14.88,0,0,1,5.8-6.35,18.14,18.14,0,0,1,17.43,0,15,15,0,0,1,5.8,6.35,21.11,21.11,0,0,1,2,9.5Z" transform="translate(-34.16 -29.69)"/><polygon class="cls-1" points="1526.96 874.23 1492.3 798.75 1469.83 798.75 1469.83 901.77 1487.4 901.77 1487.4 827.45 1521.93 901.77 1544.53 901.77 1544.53 798.75 1526.96 798.75 1526.96 874.23"/><path class="cls-1" d="M1656,855.56a14.28,14.28,0,0,1,5.53-6.53,16.45,16.45,0,0,1,8.79-2.23,13.63,13.63,0,0,1,7.14,1.91,16.38,16.38,0,0,1,5.43,5.54,26.88,26.88,0,0,1,3.32,8.72h19a54,54,0,0,0-6.54-19.25,33.24,33.24,0,0,0-12-12.16,32.26,32.26,0,0,0-16.43-4.19q-11.13,0-19,4.54a29.53,29.53,0,0,0-12.07,13.15q-4.17,8.63-4.16,20.81v28.29q0,12.2,4.16,20.81a29.3,29.3,0,0,0,12.07,13.12q7.9,4.5,19,4.5a32,32,0,0,0,16.39-4.18,33.27,33.27,0,0,0,11.94-12.16,55.36,55.36,0,0,0,6.6-19.25h-19a26.25,26.25,0,0,1-3.22,8.79,15.64,15.64,0,0,1-5.43,5.5,14.1,14.1,0,0,1-7.24,1.87,16.45,16.45,0,0,1-8.79-2.23,14.28,14.28,0,0,1-5.53-6.49,25,25,0,0,1-1.91-10.28V865.87A25.3,25.3,0,0,1,1656,855.56Z" transform="translate(-34.16 -29.69)"/><path class="cls-1" d="M1771.56,832.09a39.3,39.3,0,0,0-37.35,0,31.89,31.89,0,0,0-12.5,13.33,43.07,43.07,0,0,0-4.43,20v29.21a43.13,43.13,0,0,0,4.43,20,32,32,0,0,0,12.5,13.33,39.38,39.38,0,0,0,37.35,0,31.94,31.94,0,0,0,12.5-13.33,43,43,0,0,0,4.43-20V865.38a43,43,0,0,0-4.43-20A31.83,31.83,0,0,0,1771.56,832.09Zm-2.11,63a21,21,0,0,1-2,9.5,14.83,14.83,0,0,1-5.8,6.35,18.14,18.14,0,0,1-17.43,0,14.89,14.89,0,0,1-5.8-6.35,21.09,21.09,0,0,1-2-9.5v-30.2a21.12,21.12,0,0,1,2-9.5,15,15,0,0,1,5.8-6.35,18.14,18.14,0,0,1,17.43,0,14.88,14.88,0,0,1,5.8,6.35,21,21,0,0,1,2,9.5Z" transform="translate(-34.16 -29.69)"/><path class="cls-1" d="M1863.42,886.22a25.3,25.3,0,0,0,9.49-10.81,40.85,40.85,0,0,0,0-32.4,25.37,25.37,0,0,0-9.46-10.81,26,26,0,0,0-14.14-3.83h-42.72V931.53H1825V890.05h11.14l22,41.48h22.26L1857,889A24.45,24.45,0,0,0,1863.42,886.22Zm-10.63-16.38a8.42,8.42,0,0,1-5,1.49H1825V847.08h22.86a8.63,8.63,0,0,1,5,1.49,9.57,9.57,0,0,1,3.32,4.26,16.25,16.25,0,0,1,1.17,6.38,17,17,0,0,1-1.24,6.38A9.54,9.54,0,0,1,1852.79,869.84Z" transform="translate(-34.16 -29.69)"/><path class="cls-1" d="M1962,843.47a27.2,27.2,0,0,0-10.76-11.1,32,32,0,0,0-16.06-3.93h-39.09V931.53h18.37v-40h20.72a32.23,32.23,0,0,0,16.06-3.9,27,27,0,0,0,10.76-11,37.85,37.85,0,0,0,0-33.14Zm-16.63,23.25a10.82,10.82,0,0,1-3.92,4.51,10.63,10.63,0,0,1-5.8,1.59h-21.19V847.16h21.19a10.77,10.77,0,0,1,5.87,1.59,10.44,10.44,0,0,1,3.88,4.54,15.77,15.77,0,0,1,1.38,6.77A15,15,0,0,1,1945.39,866.72Z" transform="translate(-34.16 -29.69)"/><polygon class="cls-2" points="155.69 531.81 155.69 635.93 228.2 635.93 228.2 506.09 155.69 531.81"/><path class="cls-1" d="M243.63,167.36V445.84l20.82,13.77,28-11.89,9.1-13.77V205.56l9.08-13.76,173.74-74.39,20.85,13.75V348.23L514.26,362l28,12,20.85-13.75V43.44L542.22,29.69,252.71,153.6Z" transform="translate(-34.16 -29.69)"/><path class="cls-3" d="M563.07,319.9l-57.89-24.77-123-52.66-20.85,13.75V702.44l15,15H665.76l15-15V380.17l-9.07-13.76Zm44.81,339.62H434.17l-15-15V344l20.85-13.75,173.71,74.36,9.07,13.75V644.56Z" transform="translate(-34.16 -29.69)"/><path class="cls-1" d="M361.33,355.52,301.52,381l-57.88,24.62L52.43,486.9l-9.11,13.77V752.76l15,15h346l15-15V353.52l-20.82-13.77Zm-15,362H116.17l-15-15V539l9.1-13.77,230.2-97.91L361.33,441V702.59Z" transform="translate(-34.16 -29.69)"/></svg>